<svg id="圖層_1" data-name="圖層 1" xmlns="http://www.w3.org/2000/svg" viewBox="0 0 27.2 27.2"><defs><style>.cls-1{fill:#fff;}.cls-2{fill:#105efb;}</style></defs><title>1090310_皓_人資部_張號驗證&amp;amp;密碼更改_mailicon</title><circle class="cls-1" cx="13.6" cy="13.6" r="13.6"/><path class="cls-2" d="M12.46,17.11l-1.58,1.57a1.67,1.67,0,0,1-2.36,0,1.65,1.65,0,0,1,0-2.36l3.15-3.15a1.65,1.65,0,0,1,2.36,0,.57.57,0,0,0,.79,0,.56.56,0,0,0,0-.79,2.78,2.78,0,0,0-3.94,0L7.73,15.53a2.79,2.79,0,1,0,3.94,3.94l1.58-1.58a.56.56,0,0,0,0-.78A.56.56,0,0,0,12.46,17.11Z"/><path class="cls-2" d="M19.47,7.73a2.78,2.78,0,0,0-3.94,0L13.64,9.62a.56.56,0,1,0,.79.79l1.89-1.89a1.65,1.65,0,0,1,2.36,0,1.67,1.67,0,0,1,0,2.36l-3.47,3.47a1.67,1.67,0,0,1-2.36,0,.56.56,0,0,0-.79,0,.57.57,0,0,0,0,.79,2.8,2.8,0,0,0,3.94,0l3.47-3.47A2.78,2.78,0,0,0,19.47,7.73Z"/></svg>