<svg id="圖層_1" data-name="圖層 1" xmlns="http://www.w3.org/2000/svg" viewBox="0 0 27.2 27.2"><defs><style>.cls-1{fill:#fff;}.cls-2{fill:#105efb;}</style></defs><title>1090310_皓_人資部_張號驗證&amp;amp;密碼更改_mailicon</title><circle class="cls-1" cx="13.6" cy="13.6" r="13.6"/><path class="cls-2" d="M20.57,7.66H6.63A1.48,1.48,0,0,0,5.15,9.14v8.92a1.48,1.48,0,0,0,1.48,1.48H20.57a1.48,1.48,0,0,0,1.48-1.48V9.14A1.48,1.48,0,0,0,20.57,7.66Zm-.21,1-5.71,5.67a1.47,1.47,0,0,1-2.1,0L6.84,8.65ZM6.14,17.85V9.35l4.28,4.25Zm.7.7,4.28-4.25.73.72a2.46,2.46,0,0,0,1.75.73A2.49,2.49,0,0,0,15.35,15l.73-.73,4.28,4.25Zm14.22-.7L16.78,13.6l4.28-4.25Z"/></svg>